<?xml version="1.0" encoding="utf-8"?>
<!-- Generator: Adobe Illustrator 16.2.1, SVG Export Plug-In . SVG Version: 6.00 Build 0)  -->
<!DOCTYPE svg PUBLIC "-//W3C//DTD SVG 1.1//EN" "http://www.w3.org/Graphics/SVG/1.1/DTD/svg11.dtd">
<svg version="1.1" xmlns="http://www.w3.org/2000/svg" xmlns:xlink="http://www.w3.org/1999/xlink" x="0px" y="0px" width="202px"
	 height="205px" viewBox="0 0 202 205" enable-background="new 0 0 202 205" xml:space="preserve">
<g id="Ebene_11">
	<g>
		<circle opacity="0.2" fill="#FFFFFF" cx="96.086" cy="108.282" r="84"/>
		<g opacity="0.4">
			<path fill="#111111" d="M96.087,24.283c46.392,0,83.999,37.608,83.999,84c0,46.392-37.607,84-83.999,84
				c-46.393,0-84.001-37.607-84.001-84C12.086,61.891,49.694,24.283,96.087,24.283 M96.087,14.525
				c-51.698,0-93.759,42.06-93.759,93.757s42.061,93.757,93.759,93.757c51.697,0,93.757-42.06,93.757-93.757
				S147.784,14.525,96.087,14.525L96.087,14.525z"/>
		</g>
	</g>
</g>
<g id="Gesicht">
	<g>
		<path fill="#111111" d="M101.631,115.905c0,4.25-26.522,6.682-30.504,0.675c0.136-2.497,6.495-2.632,15.59-2.632
			S101.631,115.028,101.631,115.905z"/>
		<g>
			<path fill="#111111" d="M101.045,115.743c-0.431,2.842-8.65,3.328-10.599,3.54c-4.559,0.496-9.3,0.452-13.797-0.483
				c-1.734-0.36-3.473-0.973-4.762-2.225c-0.842-0.816,9.003-1.968,9.729-1.985c4.012-0.098,8.029-0.052,12.034,0.2
				c1.296,0.082,6.783-0.032,7.456,1.421c0.328,0.71,1.375,0.093,1.049-0.613c-0.617-1.334-3.415-1.456-4.571-1.608
				c-5.797-0.764-11.658-0.72-17.493-0.579c-1.111,0.027-13.28,0.884-8.532,4.512c4.912,3.754,13.15,3.093,18.888,2.574
				c2.696-0.244,11.197-0.651,11.771-4.432C102.333,115.3,101.162,114.971,101.045,115.743z"/>
		</g>
	</g>
	<g>
		<path fill="#F9D1B4" d="M100.061,104.186c-12.07,0.036-21.506-12.536-24.741-16.677c-0.839-1.074-2.404-3.358-4.249-6.192
			l-0.025-0.017c11.608,24.206-0.989,41.977-0.989,41.977l13.902,3.914l16.197-2.159c0,0,0.584-0.99,0.225-3.6
			C99.353,113.401,99.438,107.922,100.061,104.186z"/>
		<g>
			<path fill="#BE927D" d="M100.061,103.579c-8.166-0.288-14.578-5.376-19.896-11.145c-1.71-1.855-3.282-3.851-4.799-5.866
				c-1.197-1.589-2.399-4.735-4.015-5.792c-0.557-0.364-1.063,0.324-0.831,0.831c5.782,12.611,7.376,29.338-0.989,41.364
				c-0.229,0.328,0.008,0.792,0.363,0.892c4.024,1.133,8.049,2.267,12.074,3.4c3.185,0.896,6.34-0.044,9.603-0.479
				c1.405-0.187,8.472-0.082,9.166-1.569c1.188-2.543-0.061-6.325-0.29-8.945c-0.348-3.958-0.391-7.987,0.199-11.923
				c0.114-0.766-1.056-1.096-1.172-0.323c-0.776,5.188-0.462,10.404,0.08,15.6c0.138,1.32,0.988,4.749-0.043,4.887
				c-1.687,0.225-3.372,0.449-5.058,0.674c-3.4,0.453-6.801,0.906-10.202,1.36c-2.478,0.33-6.558-1.748-8.959-2.424
				c-1.457-0.41-2.914-0.82-4.371-1.23c-0.903-0.254-0.587,1.123,0.153-0.079c1.482-2.404,2.546-5.062,3.44-7.73
				c3.797-11.333,1.946-23.417-2.946-34.087c-0.277,0.277-0.554,0.554-0.831,0.831c1.882,1.23,3.454,5.222,4.971,7.164
				c1.861,2.383,3.843,4.648,5.981,6.786c4.984,4.981,11.197,8.766,18.37,9.019C100.845,104.821,100.842,103.606,100.061,103.579z"
				/>
		</g>
	</g>
	<g>
		<path fill="#F9D1B4" d="M119.66,78.074c0.701-18.054-3.825-34.877-3.825-34.877l-3.856-20.393l-12.383,5.188l-30.968-9.089
			l-0.629,4.657l-22.407,21.4l4.909,11.958c0,0-1.258,3.308,1.348,7.391c0.528,0.827,2.421,2.944,3.185,3.813
			c4.531,5.161,8.182,2.392,8.182,2.392l0.082,0.156c-0.423,0.201-0.987,0.417-1.718,0.599
			c-2.015,0.503,12.084,22.785,15.231,26.813c3.147,4.028,12.589,16.616,24.548,15.483c11.958-1.133,18.425-19.596,18.299-35.247
			C119.676,78.113,119.677,78.04,119.66,78.074z"/>
		<g>
			<path fill="#BE927D" d="M120.268,78.074c0.54-18.751-4.24-37.12-7.703-55.432c-0.057-0.296-0.459-0.545-0.747-0.424
				c-3.735,1.564-7.471,3.129-11.206,4.694c-1.818,0.762-4.55-0.592-6.993-1.309c-8.276-2.429-16.553-4.858-24.829-7.287
				c-0.285-0.084-0.703,0.099-0.747,0.424c-0.293,2.172-0.011,3.949-1.475,5.347c-2.572,2.457-5.145,4.914-7.717,7.37
				c-4.562,4.357-9.126,8.715-13.688,13.073c-0.142,0.135-0.234,0.401-0.156,0.591c0.818,1.993,1.637,3.986,2.455,5.979
				c0.635,1.548,2.644,4.847,2.299,6.237c-1.396,5.625,4.55,12.728,9.572,14.369c0.875,0.286,1.854,0.14,2.729-0.023
				c1.226-0.228,1.497-1.774,0.33-1.293c-1.151,0.475-1.752,0.425-1.546,1.804c0.812,5.45,5.882,11.534,8.707,16.073
				c6.227,10.004,14.982,24.435,27.918,25.806C115.617,115.996,120.106,91.483,120.268,78.074c0.01-0.784-1.205-0.783-1.215,0
				c-0.128,10.63-2.115,22.572-9.588,30.676c-8.674,9.406-21.036,1.467-27.867-5.843c-4.296-4.596-7.667-9.947-10.996-15.254
				c-2.034-3.242-3.998-6.528-5.853-9.876c-0.658-1.189-1.279-2.398-1.866-3.625c-0.843-1.76-1.261-2.141,0.575-2.898
				c0.37-0.153,0.562-0.514,0.363-0.893c-0.027-0.052-0.055-0.104-0.082-0.156c-0.146-0.278-0.566-0.399-0.831-0.218
				C57.595,73.631,51.1,63.13,50.805,59.082c-0.035-0.485,0.488-1.824,0.246-2.413c-0.563-1.375-1.128-2.749-1.692-4.123
				c-0.707-1.722-1.414-3.444-2.12-5.166c-0.404-0.984-0.622-2.56-1.187-2.021c1.583-1.512,3.166-3.024,4.75-4.537
				c5.3-5.062,10.6-10.124,15.9-15.186c0.914-0.873,1.811-1.382,1.98-2.645c0.111-0.818,0.222-1.637,0.332-2.456
				c0.199-1.476,0.373-0.779-0.51-1.039c0.723,0.212,1.445,0.425,2.168,0.637c7.004,2.056,14.008,4.111,21.012,6.167
				c2.389,0.701,4.776,1.402,7.164,2.103c1.426,0.418,2.81-0.625,4.119-1.173c2.952-1.237,5.904-2.474,8.856-3.71
				c0.615-0.257-0.479-0.806-0.388-0.327c0.069,0.37,0.14,0.739,0.209,1.109c0.322,1.705,0.646,3.41,0.968,5.114
				c0.974,5.153,1.788,10.362,3.014,15.461c2.602,10.831,3.746,22.068,3.426,33.195C119.03,78.857,120.245,78.855,120.268,78.074z"
				/>
		</g>
	</g>
	<g>
		<g>
			<path fill="#BE927D" d="M106.624,40.498c-4.663,7.239-5.06,17.356-4.614,25.609c0.014,0.245,0.173,0.546,0.446,0.585
				c4.298,0.62,12.403,2.903,9.516,8.897c-1.296,2.691-4.31,3.22-6.984,3.328c-3.088,0.124-10.565-1.019-6.347-6.338
				c0.481-0.607-0.373-1.473-0.859-0.859c-7.344,9.261,15.291,12.422,15.976,2.253c0.156-2.328-0.852-4.046-2.587-5.531
				c-0.836-0.715-1.957-1.29-2.987-1.652c-3.896-1.37-5.106-1.366-5.102-5.96c0.008-6.371,1.029-14.188,4.592-19.718
				C108.099,40.451,107.047,39.842,106.624,40.498L106.624,40.498z"/>
		</g>
	</g>
	<g>
		<path fill="#FFFFFF" d="M95.817,57.043c1.039,8.812-15.321,15.255-19.536,1.888C72.166,45.882,93.991,41.548,95.817,57.043z"/>
		<g>
			<path fill="#BE927D" d="M95.21,57.043c0.357,5.038-4.24,8.424-8.854,8.907c-6.189,0.648-10.737-5.892-9.853-11.627
				c0.666-4.316,5.183-6.499,9.129-6.558c5.509-0.082,8.866,4.409,9.6,9.439c0.113,0.772,1.283,0.443,1.172-0.323
				c-0.884-6.054-5.08-10.416-11.378-10.322c-5.091,0.076-9.465,3.745-9.86,8.859c-0.492,6.375,4.949,11.995,11.19,11.747
				c5.264-0.209,10.458-4.636,10.069-10.122C96.37,56.267,95.154,56.261,95.21,57.043z"/>
		</g>
	</g>
	<g>
		<path fill="#FFFFFF" d="M114.943,56.227c0.012,6.087-9.678,9.674-10.905,0.29C102.837,47.336,114.922,45.523,114.943,56.227z"/>
		<g>
			<path fill="#BE927D" d="M114.336,56.227c-0.086,2.712-2.149,5.073-4.875,5.408c-3.765,0.462-5.006-4.054-4.879-6.971
				c0.121-2.773,2.232-5.166,5.067-5.16C113.122,49.511,114.273,53.429,114.336,56.227c0.018,0.782,1.232,0.784,1.215,0
				c-0.081-3.632-1.591-7.402-5.594-7.917c-3.441-0.443-6.24,2.735-6.549,5.928c-0.365,3.783,1.306,8.578,5.723,8.63
				c3.536,0.042,6.313-3.306,6.42-6.641C115.576,55.443,114.361,55.446,114.336,56.227z"/>
		</g>
	</g>
	<g>
		<g>
			<path fill="#BE927D" d="M71.069,55.697c1.287,0.337,2.575,0.674,3.863,1.01c0.759,0.199,1.08-0.973,0.322-1.171
				c-1.287-0.337-2.575-0.674-3.863-1.01C70.633,54.328,70.312,55.5,71.069,55.697L71.069,55.697z"/>
		</g>
	</g>
	<g>
		<g>
			<path fill="#BE927D" d="M75.223,56.31c-1.263,0.159-2.524,0.319-3.787,0.478c-0.767,0.097-0.775,1.312,0,1.215
				c1.263-0.159,2.524-0.319,3.787-0.478C75.989,57.428,75.998,56.212,75.223,56.31L75.223,56.31z"/>
		</g>
	</g>
	<g>
		<g>
			<path fill="#BE927D" d="M74.951,57.479c-0.923,0.535-1.846,1.07-2.769,1.605c-0.677,0.393-0.065,1.442,0.613,1.049
				c0.923-0.535,1.846-1.07,2.769-1.605C76.241,58.135,75.63,57.085,74.951,57.479L74.951,57.479z"/>
		</g>
	</g>
	<g>
		<path fill="#F9D1B4" d="M76.001,55.029l-0.041-1.068c1.789-8.109,15.479-9.93,19.102-0.147c-0.165-0.086-0.339-0.183-0.522-0.295
			C87.508,49.239,76.001,55.029,76.001,55.029z"/>
		<g>
			<path fill="#BE927D" d="M76.608,55.029c-0.149-3.9,3.54-6.325,6.943-7.087c4.722-1.058,9.138,1.723,10.924,6.033
				c0.298-0.229,0.595-0.458,0.893-0.686c-6.107-3.448-13.666-1.754-19.674,1.216c-0.702,0.347-0.087,1.395,0.613,1.049
				c5.593-2.765,12.759-4.427,18.447-1.216c0.419,0.237,1.108-0.164,0.893-0.686c-1.955-4.718-6.465-7.818-11.706-6.993
				c-4.187,0.659-8.729,3.676-8.548,8.371C75.424,55.81,76.639,55.813,76.608,55.029z"/>
		</g>
	</g>
	<g>
		<path fill="#F9D1B4" d="M114.634,53.543c-1.536-0.705-5.761-2.301-10.357-0.315C105.664,47.765,113.015,47.066,114.634,53.543z"/>
		<g>
			<path fill="#BE927D" d="M114.94,53.019c-3.489-1.558-7.243-1.788-10.825-0.376c0.249,0.249,0.498,0.498,0.747,0.747
				c0.624-2.145,2.207-3.738,4.506-3.874c2.508-0.148,4.071,2.037,4.68,4.189c0.213,0.752,1.385,0.432,1.172-0.323
				c-0.8-2.828-2.769-5.032-5.852-5.081c-2.817-0.045-4.942,2.237-5.678,4.766c-0.119,0.411,0.307,0.921,0.747,0.747
				c3.267-1.286,6.692-1.172,9.89,0.254C115.036,54.384,115.654,53.338,114.94,53.019z"/>
		</g>
	</g>
	<g>
		<g>
			<path fill="#BE927D" d="M116.381,52.085c-0.351-0.017-0.701-0.034-1.052-0.051c-0.783-0.038-0.779,1.177,0,1.215
				c0.351,0.017,0.701,0.034,1.052,0.051C117.164,53.338,117.16,52.123,116.381,52.085L116.381,52.085z"/>
		</g>
	</g>
	<g>
		<g>
			<path fill="#BE927D" d="M115.192,52.574c0.46-0.346,0.92-0.691,1.38-1.037c0.618-0.464,0.014-1.52-0.613-1.049
				c-0.46,0.346-0.92,0.691-1.38,1.037C113.961,51.99,114.565,53.045,115.192,52.574L115.192,52.574z"/>
		</g>
	</g>
	<g>
		<g>
			<path fill="#BE927D" d="M115.127,53.894c0.414,0.3,0.846,0.576,1.295,0.821c0.688,0.375,1.301-0.673,0.613-1.049
				c-0.449-0.245-0.881-0.521-1.295-0.821C115.104,52.385,114.499,53.439,115.127,53.894L115.127,53.894z"/>
		</g>
	</g>
	<g>
		<path opacity="0.4" fill="#555555" d="M119.657,78.318c0.252-2.77-2.694,18.328-9.236,8.56
			c-2.315-3.458-22.738-7.679-26.561-2.392c-5.577,7.712-7.428,3.777-7.428,3.777S66.109,72.98,67.668,66.296
			c-1.783,0.189-1.354,0.021-3.046,0.171c0.046,0.92,0.318,4.088-3.043,4.801c-2.031,0.431,12.084,22.785,15.231,26.813
			c3.147,4.028,12.589,16.616,24.548,15.483C113.316,112.432,119.783,93.969,119.657,78.318z"/>
	</g>
	<g>
		<path fill="none" d="M119.66,78.074c0.701-18.054-3.825-34.877-3.825-34.877l-4.108-19.638L99.596,28.09l-30.968-9.189
			l-0.629,4.657c0,0-0.457,21.19,0.252,26.435c-25.718-11.329-18.505,7.553-18.505,7.553s0,3.308,2.606,7.391
			c0.527,0.827,1.162,1.685,1.925,2.554c4.532,5.161,8.938,3.021,8.938,3.021l0.082,0.156c-0.423,0.201-0.987,0.417-1.718,0.599
			c-2.015,0.503,12.084,22.785,15.231,26.813c3.147,4.028,12.589,16.616,24.548,15.483c11.958-1.133,18.425-19.596,18.299-35.247
			C119.676,78.113,119.677,78.04,119.66,78.074z"/>
	</g>
	<g>
		<path fill="#322020" d="M107.4,91.409c-1.76-0.491-4.154-3.902-7.553-3.272c-3.399,0.629-7.302,0.629-10.826-1.385
			s-5.477,18.064,13.092,17.372c-0.504-6.797,1.699-10.574,4.532-12.336C110.505,92.291,109.204,91.913,107.4,91.409z"/>
		<g>
			<path fill="#322020" d="M107.562,90.823c-2.849-1.186-4.344-3.548-7.714-3.294c-2.559,0.193-4.476,0.491-7.047,0.031
				c-1.457-0.261-2.71-1.494-4.15-1.549c-1.988-0.076-2.389,2.793-2.519,4.223c-0.853,9.389,7.566,14.648,15.981,14.497
				c0.318-0.006,0.624-0.272,0.607-0.607c-0.163-3.201,0.056-6.293,1.638-9.145c0.688-1.24,1.883-2.634,3.502-2.436
				c0.511,0.062,1.109,0.201,1.593-0.043c0.402-0.203,0.39-0.842,0-1.049C108.868,91.14,108.195,91.002,107.562,90.823
				c-0.755-0.213-1.075,0.959-0.322,1.172c0.517,0.146,1.12,0.25,1.601,0.505c0-0.35,0-0.699,0-1.049
				c-0.657,0.332-1.792-0.669-2.501-0.189c-0.782,0.53-1.457,1.109-2.097,1.81c-1.562,1.711-2.401,4.245-2.639,6.503
				c-0.16,1.518,0.543,3.98-1.402,3.937c-1.847-0.041-3.64-0.447-5.367-1.073c-2.609-0.944-4.658-2.935-6.003-5.312
				c-1.32-2.332-2.653-7.411-0.591-9.75c0.38-0.431,2.509,0.826,3.016,1.02c1.959,0.747,4.207,0.755,6.261,0.658
				c2.399-0.114,4.232-0.53,6.415,0.822c1.136,0.703,2.063,1.6,3.308,2.118C107.962,92.296,108.274,91.12,107.562,90.823z"/>
		</g>
	</g>
	<g>
		<path fill="#F0AEAC" d="M87.336,92.661c10.974,0.711,11.473,8.342,11.224,10.665C92.115,102.981,88.235,98.189,87.336,92.661z"/>
	</g>
	<g>
		<polygon fill="#322020" points="108.182,37.388 116.35,40.815 116.305,44.58 107.938,41.171 		"/>
		<g>
			<path fill="#322020" d="M108.021,37.973c2.723,1.143,5.445,2.285,8.168,3.428c-0.149-0.195-0.298-0.39-0.446-0.585
				c-0.015,1.255-0.03,2.51-0.045,3.765c0.256-0.195,0.513-0.391,0.769-0.585c-2.788-1.136-5.577-2.272-8.366-3.409
				c0.149,0.195,0.298,0.39,0.446,0.585c0.081-1.261,0.162-2.522,0.243-3.784c0.05-0.783-1.165-0.778-1.215,0
				c-0.081,1.261-0.162,2.522-0.243,3.784c-0.019,0.291,0.204,0.487,0.446,0.585c2.788,1.136,5.577,2.272,8.366,3.409
				c0.376,0.154,0.765-0.227,0.769-0.585c0.015-1.255,0.03-2.51,0.045-3.765c0.004-0.296-0.194-0.48-0.446-0.585
				c-2.723-1.143-5.445-2.285-8.168-3.428C107.621,36.499,107.31,37.675,108.021,37.973z"/>
		</g>
	</g>
	<g>
		<path fill="#322020" d="M92.788,41.237c0,0-12.461,6.98-16.432,7.47c-0.34-5.474,0.173-4.756,0.173-4.756
			s12.249-5.272,14.341-7.214C92.061,40.018,92.788,41.237,92.788,41.237z"/>
		<g>
			<path fill="#322020" d="M92.481,40.712c-4.943,2.762-10.641,6.497-16.286,7.409c0.256,0.195,0.513,0.39,0.769,0.585
				c-0.054-0.962-0.098-1.922-0.116-2.885c-0.004-0.359,0.004-0.718,0.024-1.076c0.204-0.556-0.054-0.677-0.772-0.365
				c0.195,0.22,0.494,0.199,0.736,0.095c4.738-2.044,10.495-3.941,14.464-7.309c-0.339-0.089-0.677-0.179-1.016-0.268
				c0.583,1.561,1.148,3.191,1.979,4.646c0.389,0.68,1.438,0.068,1.049-0.613c-0.782-1.369-1.308-2.884-1.856-4.355
				c-0.166-0.445-0.65-0.578-1.016-0.268c-3.648,3.097-9.015,4.837-13.355,6.744c-1.111,0.488-0.491,0.201-0.258,0.366
				c-0.207-0.146-0.506-0.129-0.71,0.007c-1.164,0.776-0.422,4.314-0.368,5.283c0.023,0.424,0.368,0.65,0.769,0.585
				c5.76-0.931,11.55-4.722,16.577-7.531C93.778,41.379,93.166,40.33,92.481,40.712z"/>
		</g>
	</g>
	<g>
		<g>
			<path fill="#555555" d="M85.706,60.652c0.045,2.289-4.135,3.571-4.853,0.038C80.152,57.241,85.627,56.626,85.706,60.652z
				 M83.321,59.562c0,0.556,0.451,1.007,1.008,1.007c0.556,0,1.007-0.451,1.007-1.007c0-0.557-0.451-1.007-1.007-1.007
				C83.772,58.554,83.321,59.005,83.321,59.562z"/>
		</g>
	</g>
	<g>
		<g>
			<path fill="#555555" d="M110.64,58.679c0.035,1.847-3.336,2.881-3.915,0.031C106.159,55.927,110.576,55.431,110.64,58.679z
				 M108.245,57.842c0,0.584,0.473,1.057,1.057,1.057s1.057-0.473,1.057-1.057c0-0.583-0.473-1.057-1.057-1.057
				S108.245,57.259,108.245,57.842z"/>
		</g>
	</g>
	<g>
		<path fill="#F9D1B4" d="M78.064,69.068c0,0,7.231-5.99,14.887-2.415"/>
		<g>
			<path fill="#BE927D" d="M78.494,69.498c4.009-3.247,9.528-4.258,14.296-2.259c0.722,0.303,1.034-0.873,0.322-1.171
				c-5.19-2.177-11.144-0.939-15.478,2.571C77.026,69.132,77.891,69.986,78.494,69.498L78.494,69.498z"/>
		</g>
	</g>
	<g>
		<path fill="#F9D1B4" d="M53.737,58.009c0.839-2.35,6.462,0.336,7.552,8.476c0,0-1.762-2.266-3.943-0.335"/>
		<g>
			<path fill="#BE927D" d="M54.262,58.315c0.587-1.387,2.584,0.272,3.177,0.84c2.012,1.924,2.868,4.822,3.265,7.491
				c0.339-0.197,0.677-0.394,1.016-0.591c-1.255-1.531-3.168-1.585-4.68-0.43c-0.613,0.469-0.01,1.524,0.613,1.049
				c1.13-0.863,2.3-0.868,3.207,0.241c0.434,0.528,1.094-0.066,1.016-0.591c-0.473-3.179-1.684-6.717-4.374-8.717
				c-1.188-0.883-3.498-1.771-4.288,0.096C52.911,58.415,53.957,59.035,54.262,58.315L54.262,58.315z"/>
		</g>
	</g>
	<path fill="#F0AEAC" d="M81.689,95.558"/>
</g>
<g id="Shirt_Kreis">
	<g>
		<path fill="#F9D1B4" d="M136.117,132.575c35.573-18.341,46.919-58.283,46.994-58.724c-0.271,1.014-0.323,0.655-0.776,2.164
			c6.327,1.645,24.262-36.225,15.118-39.101c-0.642,1.722-4.966,14.61-4.966,14.61s10.962-23.165,0.629-23.379
			c-1.583,2.836-5.845,17.768-6.933,21.461c3.163-10.919,5.473-17.143,6.627-21.575c2.412-9.26-8.766-7.091-9.925-2.395
			c-3.17,12.849-4.019,20.298-4.019,20.298s3.108-17.019,3.627-19.448c0.519-2.43-7.917-6.962-8.896-0.11
			c0,0-0.101,19.438-3.528,22.768c0,0-0.742-18.016-14.514-9.386c-1.029,1.997,7.031,11.994,7.659,12.722
			c0.629,0.728,5.63,7.14,4.96,9.397c-0.67,2.258-0.586,8.626,3.488,8.663c-2.368-0.502-2.426-0.781-2.426-0.781
			s-18.603,40.831-48.508,47.969C126.342,123.546,136.117,132.575,136.117,132.575z"/>
		<g>
			<path fill="#BE927D" d="M136.424,133.099c15.523-8.188,27.734-20.899,36.755-35.834c4.234-7.011,8.642-15.172,10.519-23.252
				c0.178-0.766-0.929-1.066-1.172-0.323c-0.23,0.705-0.537,1.46-0.776,2.164c-0.098,0.288,0.11,0.698,0.425,0.748
				c2.595,0.408,4.687-2.331,6.104-4.096c3.459-4.309,5.97-9.447,8.138-14.497c1.82-4.239,8.343-18.873,1.199-21.68
				c-0.325-0.128-0.644,0.139-0.747,0.424c-1.753,4.833-3.33,9.736-4.966,14.61c-0.218,0.649,0.817,1.093,1.11,0.468
				c2.357-5.024,10.601-23.444,0.104-24.293c-0.199-0.016-0.435,0.125-0.524,0.301c-3.373,6.634-4.908,14.494-6.994,21.606
				c0.391,0.108,0.781,0.215,1.172,0.323c2.108-7.217,4.677-14.315,6.627-21.575c0.971-3.614-0.209-6.906-4.209-7.2
				c-5.233-0.384-6.811,4.096-7.771,8.173c-1.299,5.518-2.493,11.131-3.157,16.769c-0.08,0.68,1.07,0.832,1.193,0.162
				c0.964-5.277,1.933-10.553,2.924-15.824c0.79-4.201,0.889-6.693-3.991-7.997c-4.187-1.119-5.354,2.949-5.433,6.15
				c-0.075,3.054-0.26,6.104-0.537,9.146c-0.302,3.311-0.458,8.453-2.775,11.144c0.346,0.144,0.691,0.287,1.037,0.43
				c-0.177-3.625-1.202-7.477-3.634-10.24c-1.36-1.546-3.631-2.322-5.653-2.046c-1.452,0.198-6.686,1.227-6.529,3.257
				c0.395,5.143,5.837,10.009,8.841,13.962c1.229,1.617,2.315,3.327,3.249,5.129c0.972,1.874,0.293,3.9,0.318,5.912
				c0.035,2.825,1.252,5.578,4.233,6.007c0.752,0.109,1.104-0.982,0.322-1.171c-0.745-0.123-1.465-0.332-2.157-0.625
				c-0.245-0.273-0.795-0.225-0.954,0.123c-9.175,20.011-25.954,42.039-48.145,47.69c-0.45,0.114-0.581,0.693-0.269,1.015
				c4.97,5.107,10.155,10.01,15.387,14.848c0.574,0.531,1.436-0.326,0.859-0.859c-2.537-2.346-5.048-4.72-7.547-7.107
				c-2.038-1.947-4.052-3.918-6.046-5.911c-1.21-1.209-1.314-0.992,0.275-1.447c1.546-0.443,3.045-1.04,4.53-1.652
				c9.005-3.707,16.608-10.36,23.082-17.491c5.705-6.285,10.561-13.361,14.814-20.692c1.235-2.131,2.401-4.304,3.497-6.51
				c0.194-0.393,0.385-0.789,0.571-1.187c0.177-0.379-1.267-0.095-0.747,0.186c0.789,0.427,1.657,0.581,2.525,0.791
				c0.107-0.39,0.215-0.781,0.322-1.171c-4.351-0.627-3.272-5.751-2.983-8.668c0.177-1.786-1.56-4.067-2.424-5.44
				c-2.113-3.355-4.851-6.315-7.129-9.558c-1.551-2.208-4.594-5.506-1.19-7.232c3.188-1.617,6.635-1.318,8.825,1.612
				c1.714,2.292,2.401,5.655,2.539,8.476c0.023,0.488,0.669,0.857,1.037,0.43c2.229-2.589,2.481-6.644,2.9-9.883
				c0.559-4.321,0.746-8.711,0.804-13.066c0.065-5.013,8.329-3.448,7.541,0.505c-0.442,2.22-0.846,4.448-1.26,6.674
				c-0.742,3.988-1.475,7.979-2.204,11.969c0.397,0.054,0.796,0.108,1.193,0.162c0.294-2.495,0.755-4.973,1.213-7.441
				c0.926-4.992,1.033-13.958,6.463-15.964c7.406-2.737,4.696,6.837,3.546,10.477c-1.729,5.472-3.488,10.929-5.099,16.438
				c-0.22,0.754,0.951,1.073,1.172,0.323c1.192-4.067,2.378-8.136,3.631-12.186c0.637-2.058,1.305-4.106,2.017-6.139
				c0.305-0.872,0.637-1.732,1.013-2.576c0.615-1.382,3.089,2.191,3.249,2.688c1.872,5.812-2.267,14.445-4.716,19.663
				c0.37,0.156,0.74,0.312,1.11,0.468c1.484-4.424,2.968-8.848,4.488-13.259c0.817-2.371,1.783,2.322,1.829,3.425
				c0.105,2.537-0.554,5.112-1.203,7.543c-1.566,5.861-4.164,11.49-7.149,16.754c-1.314,2.318-2.797,4.557-4.521,6.591
				c-0.967,1.142-3.768,4.17-2.819,1.273c-0.391-0.108-0.781-0.215-1.172-0.323c-1.788,7.699-5.939,15.285-9.855,22.048
				c-8.791,15.182-21.282,28.097-36.859,36.312C135.117,132.416,135.731,133.464,136.424,133.099z"/>
		</g>
	</g>
	<g>
		<path fill="#111111" d="M148.112,127.416c-1.822-8.908-6.452-15.341-13.335-18.985c-3.239,2.834-15.794,9.674-15.794,9.674
			l-12.347-2.993c0,0-1.78-0.273-1.969,0.794c-0.669-0.466-3.104-0.742-3.104-0.742s-2.295,7.955-10.933,8.233
			c-8.368,0.27-19.134-7.25-19.134-7.25l-0.527,0.243c0,0-18.115,5.016-23.928,6.416c-5.179,1.248-14.749,7.478-17.819,36.611
			c15.16,20.309,39.381,33.458,66.673,33.458c11.135,0,21.758-2.188,31.463-6.159c-3.021-17.506-6.537-36.999-6.379-42.696
			C133.533,139.969,148.112,127.416,148.112,127.416z"/>
	</g>
	<g>
		<g>
			<path fill="#BE927D" d="M179.784,61.862c-1.641-4.832-5.192-10.64-10.672-11.417c-0.766-0.109-1.096,1.062-0.322,1.171
				c5.048,0.717,8.307,6.103,9.822,10.57C178.863,62.923,180.036,62.606,179.784,61.862L179.784,61.862z"/>
		</g>
	</g>
	<g>
		<g>
			<path fill="#BE927D" d="M176.089,49.152c4.415-0.155,9.284,1.448,11.898,5.15c0.448,0.634,1.502,0.028,1.049-0.613
				c-2.87-4.064-8.07-5.923-12.947-5.752C175.308,47.964,175.305,49.179,176.089,49.152L176.089,49.152z"/>
		</g>
	</g>
</g>
<g id="Haare_neu">
	<g>
		<path fill="#322020" d="M111.612,21.089c0,0,4.532,15.441,3.717,18.353c0,0-4.964-14.509-7.643-16.373s3.05-3.866,3.05-3.866
			L111.612,21.089z"/>
		<g>
			<path fill="#322020" d="M111.026,21.25c0.702,2.401,1.345,4.82,1.957,7.246c0.804,3.184,2.398,7.478,1.76,10.784
				c0.391,0,0.781,0,1.172,0c-1.304-3.792-2.759-7.541-4.415-11.192c-0.825-1.82-1.72-3.737-3.099-5.212
				c-1.404-1.502,1.084-2.511,2.085-2.93c0.443-0.125,0.398-0.171-0.138-0.142c0.246,0.53,0.493,1.061,0.739,1.591
				c0.33,0.71,1.377,0.092,1.049-0.613c-0.292-0.628-0.584-1.257-0.876-1.886c-0.106-0.23-0.45-0.365-0.686-0.279
				c-1.247,0.454-3.115,1.103-3.812,2.314c-1.019,1.767,0.688,2.519,1.619,3.865c2.988,4.322,4.663,9.866,6.361,14.807
				c0.18,0.523,1.049,0.633,1.172,0c0.596-3.086-0.653-6.776-1.349-9.743c-0.702-2.998-1.505-5.978-2.368-8.934
				C111.979,20.177,110.807,20.497,111.026,21.25z"/>
		</g>
	</g>
	<g>
		<path fill="#322020" d="M118.324,19.702c-2.408-4.936-7.717-11.574-24.589-11.034c2.024-1.484,7.604-1.125,11.113-1.259
			c-3.78-3.375-20.021-4.949-26.028-1.035c1.08-1.08,3.248-2.884,5.691-3.554c-17.161-1.962-34.486,7.332-31.599,14.033
			c-25.504-2.271-2.522,62.787,10.222,53.72c-6.797,4.944-17.182-12.616-10.471-17.125c5.708-3.835,12.055,6.026,11.871,12.661
			c-0.013,0.445,2.737,0.085,3.107,0.043c0.371-0.043,2.774-14.082-0.253-14.431c2.329-3.261,11.996-20.077-4.426-30.326
			c18.372,10.851,44.116,8.114,54.661,5.361c1.223-0.319-4.184-0.81-5.668-2.024c1.754,0,6.942-0.94,7.423-0.945
			C119.11,22.3,118.996,21.077,118.324,19.702z"/>
		<g>
			<path fill="#322020" d="M118.849,19.395C114.035,9.842,103.616,7.888,93.735,8.06c0.103,0.377,0.204,0.754,0.307,1.132
				c3.119-1.678,7.37-1.094,10.807-1.176c0.477-0.012,0.875-0.69,0.43-1.037c-6.322-4.916-20.004-5.05-26.765-1.129
				c0.245,0.318,0.491,0.636,0.736,0.954c1.65-1.539,3.28-2.612,5.423-3.398c0.657-0.241,0.528-1.129-0.161-1.193
				c-8.942-0.83-18.039,0.672-25.931,5.071c-2.233,1.245-4.218,2.932-5.662,5.042c-0.991,1.446-0.387,3.879-1.411,3.863
				c-8.497-0.133-10.724,8.729-10.719,15.598c0.007,10.332,3.601,21.118,8.595,30.068c2.365,4.238,8.116,13.114,14.058,9.243
				c0.652-0.425,0.06-1.461-0.613-1.049c-5.533,3.39-10.289-5.28-11.431-9.518c-1.125-4.18,1.504-9.235,6.615-6.456
				c3.587,1.95,5.432,7.141,5.887,10.9c0.238,1.975,1.776,3.032,4.05,1.7c1.468-0.86,1.323-6.166,1.448-7.625
				c0.161-1.868,0.775-6.497-1.321-7.725c-0.13-0.076-0.204,0.779,0.288,0.036c0.427-0.645,0.801-1.324,1.171-2.001
				c0.789-1.443,1.414-2.969,1.978-4.512c3.501-9.583,0.114-18.43-8.242-23.978c-0.204,0.35-0.409,0.699-0.613,1.049
				c9.373,5.323,19.889,7.431,30.572,7.865c5.255,0.213,10.532-0.13,15.745-0.787c2.577-0.325,6.896-0.391,9.134-1.83
				c0.376-0.242,0.409-0.814,0-1.049c-1.777-1.021-4.027-0.81-5.845-1.911c-0.103,0.377-0.204,0.754-0.307,1.132
				c2.501-0.126,4.939-0.674,7.423-0.945c0.417-0.045,0.658-0.351,0.586-0.769c-0.25-1.443-0.532-2.713-1.056-4.083
				c-0.277-0.724-1.452-0.41-1.172,0.323c0.502,1.311,1.958,3.251,0.364,3.486c-2.044,0.301-4.079,0.669-6.146,0.773
				c-0.596,0.03-0.839,0.81-0.307,1.132c1.102,0.667,2.275,0.987,3.522,1.3c0.306,0.07,0.612,0.14,0.919,0.21
				c0.794,0.417,0.991,0.284,0.593-0.399c-0.869,0.219-1.75,0.397-2.628,0.578c-5.001,1.028-10.114,1.466-15.21,1.639
				c-12.245,0.416-24.831-1.612-35.576-7.713c-0.688-0.39-1.261,0.619-0.613,1.049c10.714,7.113,11.156,19.497,4.208,29.495
				c-0.237,0.341,0.018,0.774,0.363,0.892c2.297,0.786,0.792,8.618,0.56,10.284c-0.144,1.028-0.327,2.056-0.585,3.062
				c0.014-0.056-1.665,0.067-1.687,0.069c-0.489,0.025-0.554-2.018-0.566-2.082c-0.862-4.166-5.54-14.518-11.637-11.231
				c-8.962,4.831,1.647,23.885,10.128,18.689c-0.204-0.35-0.409-0.699-0.613-1.049c-8.848,5.765-17.004-18.606-18.441-23.524
				c-2.534-8.665-6.361-30.035,8.526-29.063c0.385,0.025,0.704-0.409,0.586-0.769c-1.771-5.408,6.646-9.083,10.431-10.623
				c6.476-2.635,13.675-3.282,20.582-2.642c-0.054-0.398-0.107-0.795-0.161-1.193c-2.306,0.845-4.165,2.037-5.96,3.71
				c-0.512,0.478,0.146,1.297,0.736,0.954c6.176-3.582,19.464-3.592,25.292,0.94c0.144-0.346,0.286-0.691,0.43-1.037
				c-3.707,0.089-8.035-0.479-11.42,1.342c-0.534,0.288-0.289,1.142,0.307,1.132c9.461-0.165,19.449,1.573,24.064,10.733
				C118.152,20.708,119.2,20.093,118.849,19.395z"/>
		</g>
	</g>
</g>
</svg>
