<?xml version="1.0" encoding="utf-8"?>
<!-- Generator: Adobe Illustrator 16.2.1, SVG Export Plug-In . SVG Version: 6.00 Build 0)  -->
<!DOCTYPE svg PUBLIC "-//W3C//DTD SVG 1.1//EN" "http://www.w3.org/Graphics/SVG/1.1/DTD/svg11.dtd">
<svg version="1.1" xmlns="http://www.w3.org/2000/svg" xmlns:xlink="http://www.w3.org/1999/xlink" x="0px" y="0px" width="221px"
	 height="205px" viewBox="0 0 221 205" enable-background="new 0 0 221 205" xml:space="preserve">
<g id="Ebene_11">
	<g>
		<circle opacity="0.2" fill="#FFFFFF" cx="96.086" cy="108.282" r="84"/>
		<g opacity="0.7">
			<path fill="#111111" d="M96.087,24.283c46.392,0,83.999,37.608,83.999,84c0,46.392-37.607,84-83.999,84
				c-46.393,0-84.001-37.607-84.001-84C12.086,61.891,49.694,24.283,96.087,24.283 M96.087,14.525
				c-51.698,0-93.759,42.06-93.759,93.757s42.061,93.757,93.759,93.757c51.697,0,93.757-42.06,93.757-93.757
				S147.784,14.525,96.087,14.525L96.087,14.525z"/>
		</g>
	</g>
</g>
<g id="Gesicht">
	<g>
		<path fill="#111111" d="M99.24,127.816c0,4.696-29.31,7.384-33.71,0.746c0.15-2.759,7.178-2.908,17.229-2.908
			C92.809,125.654,99.24,126.847,99.24,127.816z"/>
		<g>
			<path fill="#111111" d="M98.593,127.638c-0.394,2.914-8.448,3.516-10.533,3.783c-5.159,0.661-10.537,0.683-15.662-0.244
				c-1.999-0.361-4.085-0.978-5.682-2.276c-1.822-1.481,5.423-2.339,4.91-2.284c1.93-0.207,3.886-0.218,5.823-0.26
				c4.042-0.087,8.088-0.05,12.125,0.169c1.318,0.072,8.419-0.011,9.019,1.468c0.321,0.792,1.62,0.446,1.295-0.356
				c-0.655-1.614-3.546-1.69-4.941-1.914c-6.273-1.005-12.771-0.811-19.099-0.675c-1.487,0.032-15.662,1.152-9.492,5.274
				c5.659,3.781,14.308,3.155,20.72,2.549c2.881-0.272,12.256-0.76,12.812-4.878C100.002,127.149,98.708,126.783,98.593,127.638z"/>
		</g>
	</g>
	<g>
		<path fill="#F9D1B4" d="M97.505,114.866c-13.339,0.04-23.767-13.854-27.342-18.429c-0.927-1.187-2.656-3.711-4.695-6.843
			l-0.028-0.018c12.829,26.749-1.093,46.388-1.093,46.388l15.363,4.325l17.899-2.386c0,0,0.646-1.094,0.248-3.978
			C96.723,125.05,96.817,118.995,97.505,114.866z"/>
		<g>
			<path fill="#BE927D" d="M97.505,114.195c-8.855-0.289-15.866-5.753-21.677-11.975c-1.704-1.825-3.261-3.785-4.796-5.752
				c-1.57-2.011-3.195-6.158-5.254-7.471c-0.617-0.394-1.179,0.353-0.918,0.918c6.405,13.9,8.15,32.45-1.093,45.71
				c-0.253,0.362,0.009,0.876,0.4,0.986c4.547,1.28,9.094,2.56,13.641,3.84c3.237,0.912,6.592-0.116,9.894-0.556
				c1.412-0.188,9.81-0.205,10.486-1.653c1.312-2.809,0.037-6.738-0.227-9.643c-0.407-4.495-0.484-9.083,0.19-13.555
				c0.128-0.846-1.166-1.21-1.295-0.356c-0.871,5.775-0.51,11.595,0.104,17.378c0.199,1.88,1.384,5.067-0.344,5.298
				c-2.019,0.269-4.036,0.538-6.054,0.807c-3.531,0.471-7.062,0.941-10.594,1.412c-2.543,0.339-7.104-1.918-9.667-2.64
				c-1.706-0.48-3.412-0.96-5.118-1.441c-0.92-0.259-0.533,1.261,0.182,0.12c1.681-2.681,2.884-5.66,3.886-8.649
				c4.205-12.538,2.206-25.931-3.234-37.737c-0.306,0.306-0.611,0.612-0.918,0.918c1.205,0.769,2.445,3.773,3.307,5.015
				c0.671,0.965,1.395,1.887,2.117,2.813c2.126,2.724,4.387,5.315,6.843,7.747c5.474,5.419,12.294,9.551,20.138,9.807
				C98.371,115.565,98.368,114.223,97.505,114.195z"/>
		</g>
	</g>
	<g>
		<path fill="#F9D1B4" d="M119.164,86.01c0.774-19.951-4.228-38.542-4.228-38.542l-4.262-22.536l-13.684,5.733L62.769,20.619
			l-0.694,5.147L37.312,49.415l5.426,13.215c0,0-1.391,3.656,1.489,8.167c0.584,0.914,2.675,3.253,3.519,4.213
			c5.008,5.704,9.042,2.643,9.042,2.643l0.091,0.173c-0.468,0.222-1.092,0.46-1.898,0.662c-2.227,0.556,13.354,25.179,16.832,29.631
			c3.478,4.451,13.911,18.362,27.127,17.11c13.215-1.252,20.361-21.655,20.222-38.951C119.181,86.054,119.183,85.973,119.164,86.01z
			"/>
		<g>
			<path fill="#BE927D" d="M119.835,86.01c0.616-20.714-4.688-41.028-8.513-61.257c-0.062-0.328-0.507-0.603-0.826-0.469
				c-4.195,1.758-8.391,3.516-12.586,5.273c-1.813,0.76-5.397-0.907-7.974-1.663c-8.996-2.641-17.993-5.282-26.989-7.922
				c-0.315-0.092-0.777,0.11-0.826,0.469c-0.348,2.578-0.014,4.366-1.747,6.021c-2.773,2.649-5.547,5.298-8.321,7.947
				c-5.072,4.844-10.144,9.688-15.216,14.532c-0.156,0.149-0.259,0.442-0.173,0.653c0.904,2.203,1.809,4.405,2.713,6.608
				c0.663,1.614,2.898,5.515,2.569,6.762c-1.661,6.291,5.211,14.879,11.151,16.116c0.883,0.184,1.78,0.012,2.637-0.195
				c2.072-0.5,0.694-1.531-0.934-1.042c-1.011,0.304-0.679,1.557-0.462,2.284c1.855,6.21,6.341,12.17,9.735,17.602
				c6.88,11.008,16.577,26.78,30.856,28.103C114.82,127.673,119.623,100.711,119.835,86.01c0.013-0.866-1.33-0.865-1.342,0
				c-0.166,11.477-2.227,24.099-9.884,33.136c-9.398,11.091-23.277,3-31.2-5.359c-4.767-5.028-8.5-10.899-12.176-16.737
				c-2.247-3.571-4.419-7.19-6.478-10.873c-0.813-1.456-1.585-2.934-2.307-4.438c-1.028-2.143-1.447-2.419,0.607-3.265
				c0.408-0.168,0.621-0.568,0.4-0.986c-0.03-0.058-0.061-0.115-0.091-0.173c-0.16-0.306-0.626-0.442-0.918-0.241
				c-5.017,3.471-11.391-5.382-12.924-9.306c-1.06-2.712-0.005-4.987-1.131-7.73c-1.32-3.217-2.642-6.434-3.962-9.651
				c-0.52-1.266-0.524-0.614-0.408-0.726c0.72-0.687,1.438-1.374,2.158-2.061c5.386-5.144,10.771-10.288,16.158-15.431
				c1.855-1.772,3.711-3.544,5.566-5.316c1.403-1.34,1.149-3.386,1.401-5.253c0.107-0.801-1.224-0.484,0.108-0.093
				c0.952,0.279,1.904,0.559,2.855,0.838c3.53,1.036,7.06,2.072,10.59,3.108c6.375,1.872,12.75,3.743,19.126,5.614
				c1.199,0.352,1.634,0.053,2.841-0.453c3.456-1.448,6.911-2.895,10.366-4.343c0.455-0.191,0.911-0.382,1.366-0.573
				c0.622-0.26-0.588-0.883-0.493-0.379c0.176,0.927,0.351,1.854,0.526,2.782c0.731,3.87,1.464,7.74,2.195,11.609
				c2.914,15.408,6.175,30.454,5.704,46.297C118.467,86.876,119.81,86.874,119.835,86.01z"/>
		</g>
	</g>
	<g>
		<g>
			<path fill="#BE927D" d="M104.758,44.485c-5.155,7.982-5.603,19.199-5.099,28.3c0.015,0.271,0.19,0.604,0.492,0.647
				c4.867,0.69,14.04,3.468,10.333,10.141c-3.435,6.183-20.023,3.179-14.549-3.637c0.536-0.668-0.407-1.624-0.949-0.949
				c-3.939,4.905-0.463,8.523,5.142,9.122c5.458,0.583,12.285-0.784,12.56-7.479c0.08-1.958-1.234-3.995-2.742-5.13
				c-1.571-1.183-3.196-1.891-5.055-2.503c-1.096-0.361-3.892-0.247-3.99-2.032c-0.094-1.698-0.064-3.399-0.032-5.098
				c0.128-6.715,1.292-14.889,5.048-20.705C106.388,44.434,105.226,43.761,104.758,44.485L104.758,44.485z"/>
		</g>
	</g>
	<g>
		<path fill="#FFFFFF" d="M92.815,62.77c1.148,9.738-16.932,16.858-21.589,2.087C66.679,50.435,90.798,45.646,92.815,62.77z"/>
		<g>
			<path fill="#BE927D" d="M92.145,62.77c0.395,5.567-4.687,9.31-9.785,9.843c-6.84,0.716-11.865-6.511-10.888-12.848
				c0.736-4.771,5.727-7.183,10.088-7.248c6.088-0.091,9.798,4.872,10.608,10.431c0.125,0.854,1.418,0.49,1.295-0.356
				c-0.976-6.69-5.613-11.511-12.574-11.407c-5.625,0.084-10.458,4.139-10.896,9.79c-0.544,7.045,5.469,13.255,12.366,12.981
				c5.817-0.231,11.558-5.124,11.127-11.186C93.426,61.911,92.083,61.905,92.145,62.77z"/>
		</g>
	</g>
	<g>
		<path fill="#FFFFFF" d="M113.951,61.867c0.013,6.727-10.694,10.69-12.051,0.321C100.572,52.042,113.928,50.039,113.951,61.867z"/>
		<g>
			<path fill="#BE927D" d="M113.28,61.867c-0.096,2.997-2.376,5.606-5.388,5.977c-4.16,0.511-5.531-4.479-5.391-7.703
				c0.133-3.065,2.466-5.708,5.599-5.702C111.938,54.445,113.211,58.775,113.28,61.867c0.019,0.864,1.361,0.866,1.342,0
				c-0.089-4.014-1.758-8.18-6.181-8.749c-3.804-0.49-6.896,3.022-7.236,6.551c-0.404,4.18,1.442,9.479,6.323,9.538
				c3.907,0.046,6.977-3.654,7.094-7.339C114.65,61.001,113.308,61.004,113.28,61.867z"/>
		</g>
	</g>
	<g>
		<path fill="#F9D1B4" d="M70.917,60.544l-0.046-1.181C72.849,50.402,87.977,48.39,91.98,59.2c-0.183-0.095-0.375-0.202-0.577-0.326
			C83.633,54.145,70.917,60.544,70.917,60.544z"/>
		<g>
			<path fill="#BE927D" d="M71.588,60.544c-0.167-4.31,3.913-6.99,7.673-7.832c5.219-1.168,10.099,1.903,12.072,6.666
				c0.329-0.252,0.657-0.505,0.986-0.758c-6.75-3.809-15.102-1.939-21.741,1.344c-0.776,0.384-0.096,1.542,0.678,1.159
				c6.182-3.056,14.099-4.892,20.386-1.344c0.464,0.261,1.226-0.181,0.986-0.758c-2.161-5.214-7.144-8.64-12.937-7.728
				c-4.625,0.728-9.647,4.062-9.445,9.25C70.279,61.407,71.622,61.41,71.588,60.544z"/>
		</g>
	</g>
	<g>
		<path fill="#F9D1B4" d="M113.609,58.902c-1.697-0.779-6.366-2.543-11.446-0.349C103.697,52.516,111.82,51.744,113.609,58.902z"/>
		<g>
			<path fill="#BE927D" d="M113.948,58.322c-3.856-1.722-8.005-1.975-11.964-0.417c0.275,0.275,0.551,0.551,0.826,0.826
				c0.689-2.37,2.439-4.131,4.98-4.281c2.771-0.164,4.498,2.25,5.171,4.629c0.235,0.832,1.53,0.478,1.295-0.356
				c-0.884-3.125-3.059-5.561-6.466-5.615c-3.114-0.05-5.462,2.472-6.275,5.267c-0.132,0.454,0.339,1.017,0.826,0.826
				c3.609-1.421,7.396-1.296,10.929,0.281C114.054,59.831,114.737,58.675,113.948,58.322z"/>
		</g>
	</g>
	<g>
		<path opacity="0.4" fill="#555555" d="M119.16,86.28c0.279-3.061-2.977,20.254-10.206,9.459
			c-2.56-3.821-25.128-8.486-29.353-2.644c-6.163,8.523-8.208,4.174-8.208,4.174s-11.408-16.889-9.686-24.275
			c-1.971,0.209-1.496,0.023-3.366,0.189c0.051,1.017,0.352,4.518-3.362,5.306c-2.245,0.476,13.354,25.179,16.832,29.631
			c3.478,4.451,13.911,18.362,27.127,17.11C112.153,123.979,119.3,103.576,119.16,86.28z"/>
	</g>
	<g>
		<path fill="none" d="M119.164,86.01c0.774-19.951-4.228-38.542-4.228-38.542l-4.54-21.701l-13.405,5.008L62.769,20.619
			l-0.694,5.147c0,0-0.506,23.417,0.278,29.213c-28.421-12.52-20.45,8.347-20.45,8.347s0,3.655,2.881,8.167
			c0.583,0.914,1.284,1.862,2.127,2.823c5.009,5.704,9.877,3.338,9.877,3.338l0.091,0.173c-0.468,0.222-1.092,0.46-1.898,0.662
			c-2.227,0.556,13.354,25.179,16.832,29.631c3.478,4.451,13.911,18.362,27.127,17.11c13.215-1.252,20.361-21.655,20.222-38.951
			C119.181,86.054,119.183,85.973,119.164,86.01z"/>
	</g>
	<g>
		<path fill="#322020" d="M105.615,100.747c-1.944-0.542-4.591-4.312-8.346-3.616c-3.757,0.695-8.069,0.695-11.964-1.53
			c-3.895-2.226-6.053,19.962,14.468,19.197c-0.558-7.511,1.877-11.685,5.008-13.633
			C109.047,101.721,107.609,101.304,105.615,100.747z"/>
		<g>
			<path fill="#322020" d="M105.794,100.099c-3.148-1.31-4.8-3.921-8.524-3.64c-2.827,0.213-4.946,0.542-7.788,0.034
				c-1.609-0.288-2.994-1.65-4.585-1.711c-2.197-0.084-2.641,3.087-2.784,4.666c-0.942,10.376,8.361,16.187,17.661,16.021
				c0.352-0.006,0.69-0.301,0.671-0.671c-0.181-3.537,0.062-6.954,1.81-10.105c0.76-1.371,2.081-2.912,3.87-2.692
				c0.564,0.069,1.226,0.222,1.761-0.047c0.444-0.225,0.43-0.931,0-1.159C107.237,100.449,106.494,100.297,105.794,100.099
				c-0.835-0.235-1.189,1.06-0.357,1.295c0.572,0.161,1.239,0.276,1.771,0.559c0-0.386,0-0.773,0-1.159
				c-0.728,0.366-1.98-0.74-2.765-0.209c-0.865,0.585-1.61,1.226-2.317,2c-1.726,1.891-2.653,4.69-2.916,7.187
				c-0.176,1.677,0.602,4.398-1.549,4.35c-2.041-0.045-4.022-0.494-5.932-1.186c-2.883-1.043-5.147-3.243-6.634-5.87
				c-1.459-2.577-2.932-8.19-0.652-10.775c0.419-0.476,2.772,0.913,3.332,1.126c2.165,0.826,4.649,0.835,6.919,0.728
				c2.651-0.126,4.677-0.586,7.089,0.908c1.255,0.777,2.28,1.768,3.654,2.34C106.236,101.727,106.581,100.427,105.794,100.099z"/>
		</g>
	</g>
	<g>
		<path fill="#F0AEAC" d="M83.442,102.13c12.127,0.786,12.679,9.218,12.403,11.786C88.725,113.535,84.437,108.239,83.442,102.13z"/>
	</g>
	<g>
		<polygon fill="#322020" points="106.479,41.048 115.506,44.836 115.456,48.997 106.21,45.229 		"/>
		<g>
			<path fill="#322020" d="M106.301,41.696c3.009,1.263,6.018,2.525,9.026,3.788c-0.164-0.216-0.328-0.432-0.492-0.647
				c-0.017,1.387-0.033,2.773-0.05,4.16c0.283-0.216,0.566-0.432,0.85-0.647c-3.082-1.255-6.164-2.511-9.246-3.767
				c0.164,0.216,0.328,0.432,0.492,0.647c0.09-1.394,0.18-2.788,0.27-4.181c0.056-0.865-1.287-0.859-1.342,0
				c-0.09,1.394-0.18,2.788-0.27,4.181c-0.021,0.321,0.226,0.539,0.492,0.647c3.082,1.255,6.164,2.511,9.246,3.767
				c0.416,0.169,0.845-0.251,0.85-0.647c0.017-1.387,0.033-2.773,0.05-4.16c0.004-0.327-0.215-0.531-0.492-0.647
				c-3.009-1.263-6.018-2.525-9.026-3.788C105.86,40.066,105.516,41.366,106.301,41.696z"/>
		</g>
	</g>
	<g>
		<path fill="#322020" d="M89.468,45.302c0,0-13.771,7.714-18.158,8.255c-0.376-6.049,0.191-5.256,0.191-5.256
			s13.536-5.826,15.848-7.972C88.664,43.955,89.468,45.302,89.468,45.302z"/>
		<g>
			<path fill="#322020" d="M89.129,44.722c-5.462,3.052-11.759,7.18-17.998,8.188c0.283,0.216,0.566,0.432,0.85,0.647
				c-0.059-1.063-0.107-2.124-0.128-3.188c-0.005-0.397,0.004-0.793,0.027-1.189c0.225-0.614-0.06-0.749-0.854-0.404
				c0.216,0.244,0.546,0.221,0.813,0.105c5.236-2.259,11.598-4.355,15.983-8.077c-0.374-0.099-0.748-0.197-1.122-0.296
				c0.645,1.725,1.269,3.527,2.188,5.134c0.429,0.751,1.589,0.075,1.158-0.678c-0.863-1.512-1.444-3.188-2.051-4.812
				c-0.184-0.492-0.719-0.639-1.122-0.296c-4.032,3.422-9.963,5.345-14.76,7.453c-1.227,0.539-0.542,0.222-0.284,0.404
				c-0.229-0.161-0.559-0.143-0.785,0.008c-1.286,0.858-0.466,4.769-0.406,5.839c0.025,0.469,0.406,0.719,0.85,0.647
				c6.364-1.029,12.763-5.219,18.318-8.323C90.562,45.459,89.886,44.299,89.129,44.722z"/>
		</g>
	</g>
	<g>
		<g>
			<path fill="#555555" d="M81.642,66.758c0.05,2.529-4.569,3.946-5.362,0.042C75.504,62.988,81.555,62.308,81.642,66.758z
				 M79.006,65.552c0,0.614,0.499,1.113,1.114,1.113c0.614,0,1.112-0.499,1.112-1.113c0-0.615-0.498-1.113-1.112-1.113
				C79.505,64.439,79.006,64.937,79.006,65.552z"/>
		</g>
	</g>
	<g>
		<g>
			<path fill="#555555" d="M109.195,64.577c0.039,2.041-3.687,3.184-4.326,0.035C104.244,61.536,109.125,60.987,109.195,64.577z
				 M106.549,63.652c0,0.646,0.522,1.168,1.168,1.168s1.168-0.523,1.168-1.168c0-0.645-0.522-1.167-1.168-1.167
				S106.549,63.008,106.549,63.652z"/>
		</g>
	</g>
	<g>
		<path fill="#F9D1B4" d="M73.197,76.058c0,0,7.991-6.62,16.451-2.669"/>
		<g>
			<path fill="#BE927D" d="M73.672,76.533c4.431-3.588,10.53-4.705,15.798-2.496c0.799,0.334,1.144-0.965,0.357-1.295
				c-5.736-2.405-12.314-1.037-17.104,2.842C72.05,76.128,73.006,77.072,73.672,76.533L73.672,76.533z"/>
		</g>
	</g>
	<g>
		<path fill="#F9D1B4" d="M46.313,63.836c0.927-2.597,7.141,0.371,8.346,9.367c0,0-1.947-2.504-4.358-0.371"/>
		<g>
			<path fill="#BE927D" d="M46.893,64.175c0.648-1.532,2.855,0.301,3.511,0.928c2.223,2.126,3.17,5.329,3.608,8.278
				c0.374-0.217,0.748-0.435,1.122-0.653c-1.387-1.693-3.501-1.752-5.172-0.476c-0.678,0.518-0.011,1.685,0.678,1.159
				c1.248-0.954,2.542-0.959,3.545,0.266c0.479,0.584,1.208-0.073,1.122-0.653c-0.522-3.513-1.86-7.423-4.834-9.633
				c-1.312-0.976-3.866-1.957-4.738,0.106C45.4,64.285,46.557,64.97,46.893,64.175L46.893,64.175z"/>
		</g>
	</g>
	<path fill="#F0AEAC" d="M77.203,105.331"/>
</g>
<g id="Shirt_Kreis">
	<g>
		<path fill="#F9D1B4" d="M137.351,146.238c39.312-20.269,51.849-64.408,51.933-64.895c-0.301,1.121-0.357,0.724-0.858,2.391
			c6.992,1.818,26.812-40.031,16.707-43.21c-0.709,1.902-5.488,16.146-5.488,16.146s12.114-25.599,0.695-25.836
			c-1.749,3.134-6.459,19.635-7.661,23.716c3.496-12.066,6.048-18.944,7.323-23.842c2.666-10.233-9.687-7.836-10.968-2.646
			c-3.503,14.199-4.44,22.431-4.44,22.431s3.435-18.807,4.008-21.492c0.573-2.686-8.749-7.694-9.83-0.122
			c0,0-0.111,21.48-3.899,25.161c0,0-0.82-19.909-16.039-10.373c-1.137,2.207,7.771,13.254,8.465,14.059s6.221,7.89,5.48,10.384
			c-0.74,2.495-0.647,9.533,3.855,9.574c-2.617-0.555-2.681-0.863-2.681-0.863s-20.558,45.122-53.605,53.009
			C126.548,136.261,137.351,146.238,137.351,146.238z"/>
		<g>
			<path fill="#BE927D" d="M137.689,146.818c17.169-9.038,30.687-23.128,40.644-39.646c4.66-7.73,9.546-16.741,11.598-25.65
				c0.194-0.846-1.025-1.178-1.295-0.356c-0.255,0.78-0.594,1.613-0.858,2.391c-0.108,0.32,0.123,0.768,0.469,0.826
				c2.948,0.493,5.38-2.788,6.948-4.787c3.794-4.837,6.577-10.531,8.961-16.166c1.959-4.632,8.961-20.548,1.155-23.552
				c-0.361-0.139-0.711,0.152-0.826,0.469c-1.94,5.34-3.681,10.759-5.488,16.146c-0.24,0.717,0.902,1.208,1.227,0.517
				c2.59-5.513,11.713-25.975,0.116-26.846c-0.221-0.017-0.479,0.137-0.579,0.333c-3.742,7.315-5.426,16.025-7.729,23.876
				c0.432,0.119,0.863,0.238,1.295,0.356c2.329-7.975,5.172-15.818,7.323-23.842c1.106-4.127-0.387-7.9-5.003-7.951
				c-6.283-0.068-7.434,5.54-8.554,10.418c-1.296,5.646-2.494,11.38-3.17,17.14c-0.089,0.751,1.183,0.919,1.318,0.178
				c1.049-5.742,2.104-11.483,3.181-17.22c0.882-4.691,1.234-7.611-4.316-9.095c-4.839-1.294-5.959,3.43-6.055,7.048
				c-0.09,3.431-0.302,6.857-0.629,10.273c-0.337,3.533-0.533,9.038-3.024,11.888c0.382,0.158,0.764,0.316,1.146,0.475
				c-0.194-4.034-1.339-8.382-4.108-11.412c-1.615-1.766-4.268-2.538-6.595-2.118c-2.016,0.365-6.868,1.315-6.753,3.963
				c0.133,3.042,3.238,6.449,4.905,8.767c1.674,2.326,3.543,4.496,5.246,6.798c1.407,1.904,2.709,3.926,3.614,6.121
				c0.67,1.624-0.14,4.382-0.026,6.189c0.192,3.072,1.672,5.588,4.808,6.007c0.758,0.101,0.903-1.147,0.179-1.319
				c0.062,0.015-2.177-0.417-2.28-0.555c-0.269-0.356-0.925-0.509-1.158,0c-10.122,22.09-28.69,46.496-53.205,52.701
				c-0.498,0.126-0.641,0.767-0.296,1.122c5.488,5.647,11.223,11.063,17.004,16.408c0.635,0.586,1.586-0.36,0.949-0.949
				c-5.781-5.345-11.516-10.761-17.004-16.408c-0.099,0.374-0.197,0.748-0.296,1.122c24.854-6.292,43.746-30.926,54.006-53.318
				c-0.386,0-0.772,0-1.158,0c0.635,0.842,2.187,0.96,3.081,1.172c0.06-0.44,0.119-0.879,0.179-1.319
				c-4.522-0.603-3.461-6.415-3.117-9.503c0.232-2.096-1.921-4.886-2.958-6.482c-2.486-3.83-5.611-7.224-8.186-11.001
				c-0.728-1.069-1.392-2.175-2.02-3.306c-1.563-2.813,0.477-3.593,3.001-4.495c3.33-1.191,6.351-0.027,8.276,2.805
				c1.706,2.508,2.425,6.01,2.57,9.011c0.026,0.543,0.736,0.943,1.146,0.475c2.64-3.02,2.857-7.978,3.305-11.771
				c0.539-4.571,0.747-9.205,0.791-13.807c0.053-5.55,9.163-3.38,8.354,0.659c-0.488,2.439-0.932,4.888-1.387,7.333
				c-0.829,4.46-1.648,8.922-2.464,13.384c0.439,0.059,0.879,0.119,1.318,0.178c0.364-3.099,0.951-6.176,1.535-9.239
				c1.015-5.324,1.037-14.432,6.884-16.605c2.334-0.868,5.075-0.375,5.904,2.255c0.736,2.337-0.799,5.698-1.499,7.962
				c-2.013,6.506-4.147,12.967-6.058,19.506c-0.243,0.833,1.052,1.186,1.295,0.356c1.31-4.462,2.608-8.926,3.983-13.37
				c0.75-2.427,1.535-4.844,2.386-7.238c0.396-1.116,0.477-2.73,1.91-2.446c1.521,0.3,2.272,1.644,2.684,2.978
				c1.991,6.454-2.507,15.894-5.224,21.679c0.408,0.172,0.817,0.345,1.227,0.517c1.66-4.948,3.317-9.897,5.022-14.83
				c0.455-1.317,0.441-0.715,1.204,0.463c0.608,0.938,0.692,2.216,0.75,3.288c0.165,3.034-0.654,6.133-1.46,9.029
				c-1.787,6.431-4.649,12.613-7.97,18.386c-1.438,2.499-3.051,4.916-4.938,7.097c-0.706,0.816-1.494,1.564-2.374,2.191
				c-1.668,1.189-0.981,0.228-0.595-0.951c-0.432-0.119-0.863-0.238-1.295-0.356c-1.962,8.52-6.582,16.935-10.918,24.41
				c-9.716,16.748-23.502,31.028-40.706,40.083C136.245,146.062,136.924,147.221,137.689,146.818z"/>
		</g>
	</g>
	<g>
		<path fill="#111111" d="M150.605,140.537c-2.014-9.844-7.13-16.953-14.736-20.98c-3.579,3.132-17.453,10.69-17.453,10.69
			l-13.645-3.308c0,0-1.967-0.302-2.176,0.877c-0.739-0.515-3.431-0.82-3.431-0.82s-2.536,8.791-12.081,9.099
			c-9.248,0.298-21.145-8.011-21.145-8.011l-0.583,0.268c0,0-20.019,5.543-26.442,7.09c-3.877,0.935-9.979,4.407-14.568,16.552
			c14.753,24.159,41.361,40.288,71.741,40.288c9.953,0,19.497-1.742,28.356-4.919c-2.185-12.882-3.94-24.199-3.821-28.477
			C134.495,154.41,150.605,140.537,150.605,140.537z"/>
	</g>
	<g>
		<g>
			<path fill="#BE927D" d="M185.605,68.095c-1.812-5.34-5.737-11.758-11.792-12.618c-0.847-0.12-1.211,1.173-0.357,1.295
				c5.579,0.792,9.179,6.744,10.854,11.68C184.588,69.267,185.885,68.917,185.605,68.095L185.605,68.095z"/>
		</g>
	</g>
	<g>
		<g>
			<path fill="#BE927D" d="M181.522,54.049c4.88-0.172,10.26,1.6,13.149,5.691c0.494,0.701,1.659,0.031,1.158-0.678
				c-3.171-4.491-8.918-6.546-14.308-6.356C180.659,52.737,180.656,54.079,181.522,54.049L181.522,54.049z"/>
		</g>
	</g>
</g>
<g id="Haare_neu">
	<g>
		<path fill="#322020" d="M110.271,23.037c0,0,5.008,17.064,4.107,20.282c0,0-5.485-16.034-8.446-18.094
			c-2.96-2.06,3.37-4.272,3.37-4.272L110.271,23.037z"/>
		<g>
			<path fill="#322020" d="M109.623,23.215c0.775,2.654,1.486,5.327,2.162,8.007c0.889,3.519,2.65,8.264,1.945,11.918
				c0.432,0,0.863,0,1.295,0c-1.44-4.191-3.049-8.333-4.879-12.369c-0.912-2.012-1.901-4.129-3.425-5.759
				c-1.553-1.66,1.197-2.775,2.304-3.238c0.49-0.138,0.439-0.189-0.151-0.156c0.272,0.586,0.545,1.172,0.817,1.758
				c0.364,0.784,1.521,0.102,1.158-0.678c-0.322-0.694-0.646-1.389-0.969-2.084c-0.117-0.254-0.497-0.403-0.758-0.309
				c-1.377,0.502-3.441,1.219-4.213,2.558c-1.125,1.953,0.762,2.784,1.79,4.271c3.303,4.776,5.154,10.903,7.03,16.362
				c0.199,0.579,1.159,0.701,1.295,0c0.657-3.41-0.723-7.487-1.49-10.766c-0.776-3.313-1.663-6.606-2.617-9.872
				C110.676,22.029,109.38,22.382,109.623,23.215z"/>
		</g>
	</g>
	<g>
		<path fill="#322020" d="M117.688,21.504c-2.661-5.455-8.527-12.79-27.173-12.194c2.237-1.64,8.402-1.243,12.281-1.392
			C98.618,4.189,80.67,2.449,74.032,6.775c1.193-1.193,3.59-3.187,6.29-3.928c-18.965-2.168-38.11,8.102-34.92,15.508
			c-28.184-2.51-2.787,69.385,11.296,59.365c-7.511,5.464-18.987-13.941-11.571-18.925c6.309-4.238,13.322,6.659,13.119,13.991
			c-0.014,0.492,3.024,0.094,3.434,0.047c0.41-0.048,3.066-15.561-0.279-15.948c2.574-3.603,13.257-22.186-4.891-33.512
			c20.303,11.991,48.752,8.966,60.405,5.924c1.351-0.353-4.623-0.895-6.264-2.237c1.938,0,7.672-1.039,8.203-1.044
			C118.557,24.375,118.43,23.024,117.688,21.504z"/>
		<g>
			<path fill="#322020" d="M118.267,21.165c-5.298-10.551-16.851-12.731-27.752-12.526c0.113,0.417,0.226,0.834,0.339,1.251
				c3.403-1.884,8.177-1.205,11.942-1.3c0.527-0.014,0.965-0.761,0.475-1.146c-3.488-2.737-8.419-3.272-12.688-3.696
				c-5.488-0.546-11.995-0.414-16.889,2.448c0.271,0.352,0.542,0.703,0.813,1.054c1.817-1.715,3.623-2.92,5.994-3.755
				c0.734-0.259,0.576-1.247-0.179-1.319c-9.967-0.944-20.243,0.762-28.979,5.796c-2.474,1.426-4.713,3.351-6.182,5.813
				c-0.413,0.694-0.758,1.688-0.765,2.491c-0.014,1.72,0.72,1.317-1.075,1.36c-9.178,0.221-11.373,10.05-11.314,17.478
				c0.088,11.213,3.929,22.849,9.288,32.604c2.592,4.718,9.068,14.966,15.741,10.582c0.718-0.472,0.062-1.62-0.678-1.159
				c-5.791,3.605-10.924-5.158-12.382-9.585c-1.199-3.639-0.773-8.474,4.009-9.038c4.654-0.549,7.811,6.379,8.932,9.77
				c1.235,3.734-0.326,6.642,4.94,5.194c1.604-0.441,1.544-6.213,1.678-7.514c0.261-2.528,1.056-7.522-1.273-9.431
				c-0.519-0.425-0.336,0.783,0.172,0.019c0.425-0.638,0.801-1.308,1.175-1.976c0.942-1.687,1.688-3.475,2.348-5.288
				c3.85-10.575,0.146-20.383-9.108-26.498c-0.226,0.386-0.452,0.773-0.678,1.159c10.544,6.013,22.465,8.319,34.492,8.711
				c5.601,0.183,11.22-0.192,16.772-0.9c2.959-0.377,7.375-0.496,10.016-1.999c0.475-0.27,0.389-0.872,0-1.159
				c-1.738-1.282-4.54-0.931-6.461-2.125c-0.113,0.417-0.226,0.834-0.339,1.251c2.764-0.127,5.458-0.758,8.203-1.044
				c0.461-0.048,0.727-0.39,0.647-0.85c-0.276-1.595-0.589-2.999-1.167-4.513c-0.306-0.8-1.604-0.453-1.295,0.356
				c0.492,1.286,2.107,3.604,0.61,3.821c-2.328,0.336-4.646,0.778-6.999,0.886c-0.666,0.031-0.918,0.891-0.339,1.251
				c1.905,1.184,4.761,0.871,6.461,2.125c0-0.386,0-0.772,0-1.159c-2.968,1.689-8.389,1.718-11.654,2.098
				c-4.796,0.557-9.631,0.709-14.456,0.619c-11.735-0.22-23.559-2.68-33.814-8.528c-0.758-0.432-1.395,0.685-0.678,1.159
				c11.841,7.824,12.331,21.567,4.65,32.594c-0.26,0.372,0.016,0.862,0.4,0.986c2.451,0.79,0.907,9.251,0.664,11.052
				c-0.17,1.259-0.379,2.526-0.709,3.753c0.055-0.204-1.745,0.014-1.846,0.019c-0.569,0.03-0.562-1.91-0.585-2.038
				c-0.882-4.734-6.147-16.414-13.008-12.629C35.981,63.075,47.752,84.08,57.037,78.3c-0.226-0.386-0.452-0.773-0.678-1.159
				c-9.854,6.475-18.958-21.02-20.512-26.465c-2.722-9.539-6.714-32.748,9.555-31.649c0.423,0.028,0.781-0.453,0.647-0.85
				C44,12.089,53.765,7.941,57.985,6.283c7.056-2.773,14.841-3.474,22.337-2.764c-0.06-0.439-0.119-0.879-0.179-1.319
				c-2.537,0.894-4.635,2.259-6.586,4.101c-0.561,0.529,0.159,1.437,0.813,1.054c6.781-3.965,21.565-3.972,27.95,1.039
				c0.158-0.382,0.316-0.764,0.475-1.146c-4.068,0.103-8.92-0.566-12.62,1.483c-0.583,0.323-0.325,1.263,0.339,1.251
				c10.441-0.197,21.512,1.742,26.594,11.861C117.496,22.616,118.654,21.937,118.267,21.165z"/>
		</g>
	</g>
</g>
</svg>
